<svg width="98" height="98" viewBox="0 0 98 98" fill="none" xmlns="http://www.w3.org/2000/svg">
<path d="M69.4167 12.25H20.4167C15.925 12.25 12.25 15.925 12.25 20.4167V77.5833C12.25 79.7493 13.1104 81.8265 14.642 83.358C16.1735 84.8896 18.2507 85.75 20.4167 85.75H48.2242C46.6317 83.055 45.6108 80.0333 45.2025 76.93C43.6774 76.4131 42.2694 75.6 41.0594 74.5374C39.8494 73.4748 38.8612 72.1836 38.1517 70.738C37.4422 69.2924 37.0253 67.7208 36.9249 66.1136C36.8245 64.5064 37.0426 62.8952 37.5667 61.3725C39.2408 56.4725 43.8142 53.0833 49 53.0833C50.7967 53.0833 52.5933 53.4917 54.2267 54.2675C63.5775 46.9583 76.8892 47.3258 85.75 55.2883V28.5833L69.4167 12.25ZM61.25 36.75H20.4167V20.4167H61.25V36.75ZM64.3125 85.75L53.0833 73.5L57.82 68.7633L64.3125 75.2558L78.9717 60.5967L83.7083 66.3542L64.3125 85.75Z" fill="#4E0153"/>
</svg>
