<svg width="98" height="98" viewBox="0 0 98 98" fill="none" xmlns="http://www.w3.org/2000/svg">
<path d="M28.5834 73.4912C19.7022 73.4422 14.892 73.0502 11.756 69.9101C8.16675 66.3249 8.16675 60.547 8.16675 48.9994V32.666C8.16675 21.1183 8.16675 15.3404 11.756 11.7553C15.3412 8.16602 21.1191 8.16602 32.6667 8.16602H65.3334C76.8811 8.16602 82.659 8.16602 86.2442 11.7553C88.245 13.7561 89.1311 16.4348 89.5231 20.416M67.3751 73.4912L70.7234 73.483C78.7757 73.3973 83.2674 72.8909 86.2442 69.9101C89.8334 66.3249 89.8334 60.547 89.8334 48.9994V36.7494M36.7501 24.4993H61.2501M28.5834 38.791H36.7501M69.4167 38.791H51.0417" stroke="#4E0153" stroke-width="6" stroke-linecap="round"/>
<path d="M44.4676 56.9406C45.7315 55.862 47.3386 55.2695 49.0001 55.2695C50.6616 55.2695 52.2687 55.862 53.5326 56.9406C54.6474 57.8961 56.0398 58.4718 57.5057 58.5902C59.1603 58.7218 60.714 59.4385 61.8881 60.6118C63.0621 61.7851 63.7798 63.3383 63.9125 64.9929C64.0268 66.4629 64.6066 67.8512 65.558 68.9701C66.6344 70.2334 67.2256 71.8388 67.2256 73.4985C67.2256 75.1582 66.6344 76.7636 65.558 78.0269C64.6044 79.1463 64.0285 80.5381 63.9125 82.0041C63.7806 83.66 63.0628 85.2147 61.8878 86.3889C60.7128 87.5632 59.1576 88.28 57.5016 88.4108C56.0371 88.5277 54.6468 89.1035 53.5285 90.0564C52.2652 91.1328 50.6598 91.7239 49.0001 91.7239C47.3404 91.7239 45.735 91.1328 44.4717 90.0564C43.3529 89.1013 41.9609 88.5239 40.4945 88.4067C38.8406 88.2742 37.2879 87.5571 36.1147 86.3839C34.9415 85.2107 34.2244 83.658 34.0919 82.0041C33.9747 80.5377 33.3973 79.1457 32.4422 78.0269C31.3658 76.7636 30.7747 75.1582 30.7747 73.4985C30.7747 71.8388 31.3658 70.2334 32.4422 68.9701C33.3973 67.8512 33.9747 66.4593 34.0919 64.9929C34.2244 63.339 34.9415 61.7863 36.1147 60.6131C37.2879 59.4398 38.8406 58.7227 40.4945 58.5902C41.9645 58.4718 43.3488 57.8961 44.4676 56.9406Z" stroke="#4E0153" stroke-width="6"/>
<path d="M42.875 74.316L46.3744 77.5827L55.125 69.416" stroke="#4E0153" stroke-width="6" stroke-linecap="round" stroke-linejoin="round"/>
</svg>
